<?xml version="1.0" encoding="utf-8"?>
<!-- Svg Vector Icons : http://www.onlinewebfonts.com/icon -->
<!DOCTYPE svg PUBLIC "-//W3C//DTD SVG 1.1//EN" "http://www.w3.org/Graphics/SVG/1.1/DTD/svg11.dtd">
<svg version="1.1" xmlns="http://www.w3.org/2000/svg" xmlns:xlink="http://www.w3.org/1999/xlink" x="0px" y="0px" viewBox="0 0 1000 1000" enable-background="new 0 0 1000 1000" xml:space="preserve">
<metadata> Svg Vector Icons : http://www.onlinewebfonts.com/icon </metadata>
<g><g transform="translate(0.000000,511.000000) scale(0.100000,-0.100000)"><path d="M2665.5,4982.4c-220.9-67.7-388.4-210.2-1329.1-1115.3C680.8,3236.4,296,2837.3,224.7,2719.8L117.8,2538l-10.7-3552.6l-7.1-3549l92.6-110.4l92.6-110.5h3531.2c2722.3,3.6,3549,10.7,3591.7,46.3c135.4,103.3,139,139,139,2433.7V-70.3l990.6,1019.1C9988,2445.4,9898.9,2342,9898.9,2545.1v171l-434.7,420.5c-716.2,691.3-691.3,691.3-1403.9-39.2l-509.6-523.8l-3.6,1111.7v1111.7l-85.5,99.8l-85.5,99.8l-2312.5,7.1C3795.1,5007.3,2715.4,4996.6,2665.5,4982.4z M7326.3,3560.7l7.1-1218.6L5865.3,824.1c-808.9-833.8-1507.2-1575-1550-1646.2c-42.7-71.3-174.6-449-295.7-833.8c-174.6-563-210.2-719.7-178.2-776.8c85.5-156.8,135.4-153.2,862.3,64.1c377.7,114,744.7,238.7,812.4,270.8c67.7,35.6,506,449,969.2,922.9l844.5,862.3l3.6-2105.9c0-1589.2-10.7-2113-42.8-2145.1c-60.6-60.6-6873.5-60.6-6934.1,0c-32.1,32.1-42.8,855.2-42.8,3492v3449.2h1033.3c830.2,0,1061.8,10.7,1161.6,53.4c213.8,89.1,228,163.9,228,1336.2v1033.3l2291.2-7.1l2287.6-10.7L7326.3,3560.7z M2523,3699.6c0-858.8-7.1-1004.8-57-1051.2c-46.3-49.9-196-57-1069-57c-987,0-1012,3.6-979.9,67.7c35.6,64.1,2059.6,2034.6,2091.6,2034.6C2515.9,4693.8,2523,4244.8,2523,3699.6z M9286.1,3022.6c238.7-231.6,434.7-449,434.7-481c0-71.3-210.2-295.8-2380.2-2540.6C6371.3-1000.3,5523.3-1848.3,5452-1891.1c-146.1-78.4-687.7-256.6-791-256.6c-71.3,0-427.6,388.4-427.6,466.8c0,74.8,171,591.5,238.7,719.7c32.1,64.2,491.7,563,1022.7,1111.7c2875.5,2971.8,3199.8,3296,3274.6,3296C8819.3,3443.1,9008.1,3289.9,9286.1,3022.6z M4229.8-2297.3c-103.3-35.6-192.4-60.5-196-53.4c-7.1,3.6,14.2,96.2,46.3,199.6l53.5,188.8l139-135.4l142.5-139L4229.8-2297.3z"/><path d="M1489.7,1575.9c-35.6-42.8-35.6-64.1,0-106.9c39.2-46.3,338.5-53.4,2316.1-53.4c1977.6,0,2276.9,7.1,2316.1,53.4c35.6,42.8,35.6,64.1,0,106.9c-39.2,46.3-338.5,53.4-2316.1,53.4C1828.2,1629.4,1528.9,1622.2,1489.7,1575.9z"/><path d="M1489.7,257.5c-24.9-28.5-35.6-78.4-21.4-106.9c17.8-46.3,238.7-53.5,1749.6-53.5c1510.8,0,1731.7,7.1,1749.6,53.5c14.3,28.5,3.6,78.4-21.4,106.9C4878.3,339.5,1557.4,339.5,1489.7,257.5z"/><path d="M1657.1-1107.2c-192.4-10.7-206.7-17.8-196-89.1l10.7-78.4l1168.7-10.7c1036.9-7.1,1168.8-3.5,1190.1,49.9c10.7,28.5,3.5,71.3-14.3,89.1C3780.8-1110.7,2138.2-1082.2,1657.1-1107.2z"/><path d="M1496.8-2464.8c-28.5-17.8-42.8-60.6-35.6-96.2c10.7-64.1,60.6-67.7,990.6-67.7c930,0,979.9,3.6,990.6,67.7c7.1,35.6-7.1,78.4-35.6,96.2c-24.9,17.8-456.1,32-954.9,32C1952.9-2432.7,1521.7-2447,1496.8-2464.8z"/><path d="M6994.9,841.9C5166.9-1053.7,5028-1217.6,5199-1249.7c78.4-14.3,3791.3,3830.5,3791.3,3926.7C8990.3,2897.9,8847.8,2762.5,6994.9,841.9z"/></g></g>
</svg>